<svg xmlns="http://www.w3.org/2000/svg" xmlns:xlink="http://www.w3.org/1999/xlink" id="processonSvg1000" viewBox="79.92166551436242 21.64762705111815 540.3152212647043 1952.384118980626" width="540.3152212647043" height="1952.384118980626"><defs id="ProcessOnDefs1001"><marker id="ProcessOnMarker1238" markerUnits="userSpaceOnUse" orient="auto" markerWidth="16.23606797749979" markerHeight="10.550836550532098" viewBox="-1.0 -1.3763819204711736 16.23606797749979 10.550836550532098" refX="-1.0" refY="3.8990363547948754"><path id="ProcessOnPath1239" d="M12.0 3.8990363547948754L0.0 7.798072709589751V0.0Z" stroke="#323232" stroke-width="2.0" fill="#323232" transform="matrix(1.0,0.0,0.0,1.0,0.0,0.0)"/></marker></defs><g id="ProcessOnG1002"><path id="ProcessOnPath1003" d="M79.92166551436242 21.64762705111815H620.2368867790667V1974.0317460317442H79.92166551436242V21.647627051118207Z" fill="none"/><g id="ProcessOnG1004"><g id="ProcessOnG1005" transform="matrix(1.0,0.0,0.0,1.0,99.92166551436242,913.1410256410247)" opacity="1.0"><path id="ProcessOnPath1006" d="M0.0 0.0L500.3152212647043 0.0L500.3152212647043 304.6153846153845L0.0 304.6153846153845Z" stroke="#ff0000" stroke-width="1.0" stroke-dasharray="5.0 2.0" fill="none"/><g id="ProcessOnG1007" transform="matrix(1.0,0.0,0.0,1.0,10.0,144.18269230769226)"><text id="ProcessOnText1008" fill="#3333ff" font-size="13" x="0.0" y="13.325" font-family="Arial" font-weight="bold" font-style="normal" text-decoration="none" family="Arial" text-anchor="start" size="13">initialize</text></g></g><g id="ProcessOnG1009" transform="matrix(1.0,0.0,0.0,1.0,217.06792230201174,995.0641025641004)" opacity="1.0"><path id="ProcessOnPath1010" d="M0.0 0.0L361.61509605251456 0.0L361.61509605251456 208.78925764526298L0.0 208.78925764526298Z" stroke="#323232" stroke-width="1.0" stroke-dasharray="none" fill="#ffffff"/><g id="ProcessOnG1011" transform="matrix(1.0,0.0,0.0,1.0,10.0,94.39462882263149)"><text id="ProcessOnText1012" fill="#323232" font-size="16" x="0.0" y="16.4" font-family="Courier New" font-weight="bold" font-style="normal" text-decoration="none" family="Courier New" text-anchor="start" size="16">unittest</text></g></g><g id="ProcessOnG1013" transform="matrix(1.0,0.0,0.0,1.0,311.2270273151227,1008.8295119216108)" opacity="1.0"><path id="ProcessOnPath1014" d="M0.0 0.0L251.56316196335388 0.0L251.56316196335388 132.13202653992585L0.0 132.13202653992585Z" stroke="#323232" stroke-width="1.0" stroke-dasharray="none" fill="#66ff66"/><g id="ProcessOnG1015" transform="matrix(1.0,0.0,0.0,1.0,10.0,56.06601326996292)"><text id="ProcessOnText1016" fill="#323232" font-size="16" x="0.0" y="16.4" font-family="Times New Roman" font-weight="bold" font-style="normal" text-decoration="none" family="Times New Roman" text-anchor="start" size="16">TestSuite</text></g></g><g id="ProcessOnG1017" transform="matrix(1.0,0.0,0.0,1.0,100.50582750582767,222.57648887060614)" opacity="1.0"><path id="ProcessOnPath1018" d="M0.0 0.0L499.0508746300847 0.0L499.0508746300847 255.94915215503457L0.0 255.94915215503457Z" stroke="#ff0000" stroke-width="1.0" stroke-dasharray="5.0 2.0" fill="none"/><g id="ProcessOnG1019" transform="matrix(1.0,0.0,0.0,1.0,10.0,119.84957607751728)"><text id="ProcessOnText1020" fill="#3333ff" font-size="13" x="0.0" y="13.325" font-family="Arial" font-weight="bold" font-style="normal" text-decoration="none" family="Arial" text-anchor="start" size="13">loader</text></g></g><g id="ProcessOnG1021" transform="matrix(1.0,0.0,0.0,1.0,218.7200922328613,351.0680291176211)" opacity="1.0"><path id="ProcessOnPath1022" d="M0.0 0.0L359.8686980717591 0.0L359.8686980717591 66.64030421571243L0.0 66.64030421571243Z" stroke="#3399ff" stroke-width="1.0" stroke-dasharray="5.0 2.0" fill="none"/><g id="ProcessOnG1023" transform="matrix(1.0,0.0,0.0,1.0,10.0,0.0)"><text id="ProcessOnText1024" fill="#00cc66" font-size="13" x="168.93434903587956" y="13.325" font-family="Arial" font-weight="bold" font-style="normal" text-decoration="none" family="Arial" text-anchor="middle" size="13">validate</text></g></g><g id="ProcessOnG1025" transform="matrix(1.0,0.0,0.0,1.0,100.52464857956657,498.52564102564116)" opacity="1.0"><path id="ProcessOnPath1026" d="M0.0 0.0L499.0132324826069 0.0L499.0132324826069 397.93269230769215L0.0 397.93269230769215Z" stroke="#ff0000" stroke-width="1.0" stroke-dasharray="5.0 2.0" fill="none"/><g id="ProcessOnG1027" transform="matrix(1.0,0.0,0.0,1.0,10.0,182.71634615384608)"><text id="ProcessOnText1028" fill="#3333ff" font-size="13" x="0.0" y="13.325" font-family="Arial" font-weight="bold" font-style="normal" text-decoration="none" family="Arial" text-anchor="start" size="13">config</text><text id="ProcessOnText1029" fill="#3333ff" font-size="13" x="0.0" y="29.575" font-family="Arial" font-weight="bold" font-style="normal" text-decoration="none" family="Arial" text-anchor="start" size="13">parser</text></g></g><g id="ProcessOnG1030" transform="matrix(1.0,0.0,0.0,1.0,100.51298046152063,1836.2037617557987)" opacity="1.0"><path id="ProcessOnPath1031" d="M0.0 0.0L499.1325913703879 0.0L499.1325913703879 117.82798427594548L0.0 117.82798427594548Z" stroke="#ff0000" stroke-width="1.0" stroke-dasharray="5.0 2.0" fill="none"/><g id="ProcessOnG1032" transform="matrix(1.0,0.0,0.0,1.0,10.0,50.78899213797274)"><text id="ProcessOnText1033" fill="#3333ff" font-size="13" x="0.0" y="13.325" font-family="Arial" font-weight="bold" font-style="normal" text-decoration="none" family="Arial" text-anchor="start" size="13">report</text></g></g><g id="ProcessOnG1034" transform="matrix(1.0,0.0,0.0,1.0,99.96967684020696,1237.7370227811437)" opacity="1.0"><path id="ProcessOnPath1035" d="M0.0 0.0L500.2191986130151 0.0L500.2191986130151 475.6172242789887L0.0 475.6172242789887Z" stroke="#ff0000" stroke-width="1.0" stroke-dasharray="5.0 2.0" fill="none"/><g id="ProcessOnG1036" transform="matrix(1.0,0.0,0.0,1.0,10.0,229.68361213949436)"><text id="ProcessOnText1037" fill="#3333ff" font-size="13" x="0.0" y="13.325" font-family="Arial" font-weight="bold" font-style="normal" text-decoration="none" family="Arial" text-anchor="start" size="13">runner</text></g></g><g id="ProcessOnG1038" transform="matrix(1.0,0.0,0.0,1.0,219.82735952709137,1306.8650793650843)" opacity="1.0"><path id="ProcessOnPath1039" d="M0.0 0.0L360.3774785009274 0.0L360.3774785009274 337.36111111111074L0.0 337.36111111111074Z" stroke="#66cc00" stroke-width="1.0" stroke-dasharray="1.0 1.5" fill="#cce5ff"/><g id="ProcessOnG1040" transform="matrix(1.0,0.0,0.0,1.0,10.0,152.43055555555537)"><text id="ProcessOnText1041" fill="#ff00ff" font-size="13" x="0.0" y="13.325" font-family="Arial" font-weight="normal" font-style="normal" text-decoration="none" family="Arial" text-anchor="start" size="13">teststep</text><text id="ProcessOnText1042" fill="#ff00ff" font-size="13" x="0.0" y="29.575" font-family="Arial" font-weight="normal" font-style="normal" text-decoration="none" family="Arial" text-anchor="start" size="13">iteration</text></g></g><g id="ProcessOnG1043" transform="matrix(1.0,0.0,0.0,1.0,100.89374195408699,41.64762705111815)" opacity="1.0"><path id="ProcessOnPath1044" d="M0.0 0.0L498.3614661200861 0.0L498.3614661200861 158.0152909970355L0.0 158.0152909970355Z" stroke="#ff3333" stroke-width="1.0" stroke-dasharray="5.0 2.0" fill="none"/><g id="ProcessOnG1045" transform="matrix(1.0,0.0,0.0,1.0,10.0,70.88264549851775)"><text id="ProcessOnText1046" fill="#3333ff" font-size="13" x="0.0" y="13.325" font-family="Arial" font-weight="bold" font-style="normal" text-decoration="none" family="Arial" text-anchor="start" size="13"> prepare</text></g></g><g id="ProcessOnG1047" transform="matrix(1.0,0.0,0.0,1.0,220.0633512397168,61.426620869114316)" opacity="1.0"><path id="ProcessOnPath1048" d="M0.0 0.0L119.9535525822713 0.0L119.9535525822713 38.696035837626695L0.0 38.696035837626695Z" stroke="#323232" stroke-width="1.0" stroke-dasharray="none" fill="#ccccff"/><g id="ProcessOnG1049" transform="matrix(1.0,0.0,0.0,1.0,10.0,4.348017918813348)"><text id="ProcessOnText1050" fill="#323232" font-size="12" x="48.97677629113565" y="12.3" font-family="Times New Roman" font-weight="normal" font-style="normal" text-decoration="none" family="Times New Roman" text-anchor="middle" size="12">HAR</text><text id="ProcessOnText1051" fill="#323232" font-size="12" x="48.97677629113565" y="27.3" font-family="Times New Roman" font-weight="normal" font-style="normal" text-decoration="none" family="Times New Roman" text-anchor="middle" size="12">Charles/Fiddler</text></g></g><g id="ProcessOnG1052" transform="matrix(1.0,0.0,0.0,1.0,340.01690382198825,61.28919367977626)" opacity="1.0"><path id="ProcessOnPath1053" d="M0.0 0.0L120.57366391374057 0.0L120.57366391374057 39.56268990143752L0.0 39.56268990143752Z" stroke="#323232" stroke-width="1.0" stroke-dasharray="none" fill="#ccffff"/><g id="ProcessOnG1054" transform="matrix(1.0,0.0,0.0,1.0,10.0,3.5313449507187613)"><text id="ProcessOnText1055" fill="#323232" font-size="13" x="49.28683195687029" y="13.325" font-family="Times New Roman" font-weight="normal" font-style="normal" text-decoration="none" family="Times New Roman" text-anchor="middle" size="13">Postman</text><text id="ProcessOnText1056" fill="#323232" font-size="13" x="49.28683195687029" y="29.575" font-family="Times New Roman" font-weight="normal" font-style="normal" text-decoration="none" family="Times New Roman" text-anchor="middle" size="13">collection</text></g></g><g id="ProcessOnG1057" transform="matrix(1.0,0.0,0.0,1.0,220.0633512397168,100.12265670674104)" opacity="1.0"><path id="ProcessOnPath1058" d="M0.0 0.0L240.32661118015523 0.0L240.32661118015523 40.59549987498171L0.0 40.59549987498171Z" stroke="#323232" stroke-width="1.0" stroke-dasharray="none" fill="#ffff66"/><g id="ProcessOnG1059" transform="matrix(1.0,0.0,0.0,1.0,10.0,12.172749937490856)"><text id="ProcessOnText1060" fill="#323232" font-size="13" x="109.16330559007761" y="13.325" font-family="Courier New" font-weight="bold" font-style="normal" text-decoration="none" family="Courier New" text-anchor="middle" size="13">record &amp; generate</text></g></g><g id="ProcessOnG1061" transform="matrix(1.0,0.0,0.0,1.0,220.0633512397168,140.71815658172244)" opacity="1.0"><path id="ProcessOnPath1062" d="M0.0 0.0L119.9535525822713 0.0L119.9535525822713 39.673719164991724L0.0 39.673719164991724Z" stroke="#323232" stroke-width="1.0" stroke-dasharray="none" fill="#cfcfcf"/><g id="ProcessOnG1063" transform="matrix(1.0,0.0,0.0,1.0,10.0,11.711859582495862)"><text id="ProcessOnText1064" fill="#323232" font-size="13" x="48.97677629113565" y="13.325" font-family="Arial" font-weight="normal" font-style="normal" text-decoration="none" family="Arial" text-anchor="middle" size="13">JSON</text></g></g><g id="ProcessOnG1065" transform="matrix(1.0,0.0,0.0,1.0,219.02411145617643,240.7862478327689)" opacity="1.0"><path id="ProcessOnPath1066" d="M0.0 0.0L358.9946264973855 0.0L358.9946264973855 45.76137121484993L0.0 45.76137121484993Z" stroke="#323232" stroke-width="1.0" stroke-dasharray="none" fill="#ffffff"/><g id="ProcessOnG1067" transform="matrix(1.0,0.0,0.0,1.0,10.0,14.755685607424965)"><text id="ProcessOnText1068" fill="#323232" font-size="13" x="0.0" y="13.325" font-family="Courier New" font-weight="bold" font-style="normal" text-decoration="none" family="Courier New" text-anchor="start" size="13">file loader</text></g></g><g id="ProcessOnG1069" transform="matrix(1.0,0.0,0.0,1.0,335.5434632910896,249.52154172890886)" opacity="1.0"><path id="ProcessOnPath1070" d="M0.0 0.0L60.11083217216599 0.0L60.11083217216599 26.72838770448834L0.0 26.72838770448834Z" stroke="#323232" stroke-width="1.0" stroke-dasharray="none" fill="#ffffff"/><g id="ProcessOnG1071" transform="matrix(1.0,0.0,0.0,1.0,10.0,5.239193852244171)"><text id="ProcessOnText1072" fill="#323232" font-size="13" x="19.055416086082996" y="13.325" font-family="Times New Roman" font-weight="normal" font-style="normal" text-decoration="none" family="Times New Roman" text-anchor="middle" size="13">api</text></g></g><g id="ProcessOnG1073" transform="matrix(1.0,0.0,0.0,1.0,405.8681418151842,250.0856143475322)" opacity="1.0"><path id="ProcessOnPath1074" d="M0.0 0.0L71.26713035346097 0.0L71.26713035346097 26.0709230991921L0.0 26.0709230991921Z" stroke="#323232" stroke-width="1.0" stroke-dasharray="none" fill="#ffffff"/><g id="ProcessOnG1075" transform="matrix(1.0,0.0,0.0,1.0,10.0,-3.21453845040395)"><text id="ProcessOnText1076" fill="#323232" font-size="13" x="24.633565176730485" y="13.325" font-family="Times New Roman" font-weight="normal" font-style="normal" text-decoration="none" family="Times New Roman" text-anchor="middle" size="13">testcase</text><text id="ProcessOnText1077" fill="#323232" font-size="13" x="24.633565176730485" y="29.575" font-family="Times New Roman" font-weight="normal" font-style="normal" text-decoration="none" family="Times New Roman" text-anchor="middle" size="13">s</text></g></g><g id="ProcessOnG1078" transform="matrix(1.0,0.0,0.0,1.0,489.44713041396386,251.0429761176659)" opacity="1.0"><path id="ProcessOnPath1079" d="M0.0 0.0L68.14058888428156 0.0L68.14058888428156 25.247914645056653L0.0 25.247914645056653Z" stroke="#323232" stroke-width="1.0" stroke-dasharray="none" fill="#ffffff"/><g id="ProcessOnG1080" transform="matrix(1.0,0.0,0.0,1.0,10.0,-3.6260426774716734)"><text id="ProcessOnText1081" fill="#323232" font-size="13" x="23.070294442140778" y="13.325" font-family="Times New Roman" font-weight="normal" font-style="normal" text-decoration="none" family="Times New Roman" text-anchor="middle" size="13">testsuite</text><text id="ProcessOnText1082" fill="#323232" font-size="13" x="23.070294442140778" y="29.575" font-family="Times New Roman" font-weight="normal" font-style="normal" text-decoration="none" family="Times New Roman" text-anchor="middle" size="13">s</text></g></g><g id="ProcessOnG1083" transform="matrix(1.0,0.0,0.0,1.0,217.0952467359741,786.6243991814322)" opacity="1.0"><path id="ProcessOnPath1084" d="M0.0 0.0L157.96737186622707 0.0L157.96737186622707 38.636618204456L0.0 38.636618204456Z" stroke="#323232" stroke-width="1.0" stroke-dasharray="none" fill="#ffffff"/><g id="ProcessOnG1085" transform="matrix(1.0,0.0,0.0,1.0,10.0,3.0683091022279996)"><text id="ProcessOnText1086" fill="#323232" font-size="13" x="67.98368593311353" y="13.325" font-family="Courier New" font-weight="bold" font-style="normal" text-decoration="none" family="Courier New" text-anchor="middle" size="13">parse config </text><text id="ProcessOnText1087" fill="#323232" font-size="13" x="67.98368593311353" y="29.575" font-family="Courier New" font-weight="bold" font-style="normal" text-decoration="none" family="Courier New" text-anchor="middle" size="13">name</text></g></g><g id="ProcessOnG1088" transform="matrix(1.0,0.0,0.0,1.0,217.60739480756112,841.1904761904752)" opacity="1.0"><path id="ProcessOnPath1089" d="M0.0 0.0L360.26462701927693 0.0L360.26462701927693 38.571428571428555L0.0 38.571428571428555Z" stroke="#323232" stroke-width="1.0" stroke-dasharray="none" fill="#ccff99"/><g id="ProcessOnG1090" transform="matrix(1.0,0.0,0.0,1.0,10.0,11.160714285714278)"><text id="ProcessOnText1091" fill="#323232" font-size="13" x="169.13231350963846" y="13.325" font-family="Courier New" font-weight="bold" font-style="normal" text-decoration="none" family="Courier New" text-anchor="middle" size="13">parsed testcases(list)</text></g></g><g id="ProcessOnG1092" transform="matrix(1.0,0.0,0.0,1.0,396.3860161811407,787.1129057011406)" opacity="1.0"><path id="ProcessOnPath1093" d="M0.0 0.0L180.5538936805524 0.0L180.5538936805524 37.65960516503924L0.0 37.65960516503924Z" stroke="#323232" stroke-width="1.0" stroke-dasharray="none" fill="#ffffff"/><g id="ProcessOnG1094" transform="matrix(1.0,0.0,0.0,1.0,10.0,2.579802582519619)"><text id="ProcessOnText1095" fill="#323232" font-size="13" x="79.2769468402762" y="13.325" font-family="Courier New" font-weight="bold" font-style="normal" text-decoration="none" family="Courier New" text-anchor="middle" size="13">parse config </text><text id="ProcessOnText1096" fill="#323232" font-size="13" x="79.2769468402762" y="29.575" font-family="Courier New" font-weight="bold" font-style="normal" text-decoration="none" family="Courier New" text-anchor="middle" size="13">request</text></g></g><g id="ProcessOnG1097" transform="matrix(1.0,0.0,0.0,1.0,227.67230556345592,367.90621015895215)" opacity="1.0"><path id="ProcessOnPath1098" d="M0.0 0.0L168.43722155141722 0.0L168.43722155141722 38.75753022080437L0.0 38.75753022080437Z" stroke="#323232" stroke-width="1.0" stroke-dasharray="none" fill="#ffffff"/><g id="ProcessOnG1099" transform="matrix(1.0,0.0,0.0,1.0,10.0,3.1287651104021847)"><text id="ProcessOnText1100" fill="#323232" font-size="13" x="73.21861077570861" y="13.325" font-family="Courier New" font-weight="bold" font-style="normal" text-decoration="none" family="Courier New" text-anchor="middle" size="13">JSON Schema </text><text id="ProcessOnText1101" fill="#323232" font-size="13" x="73.21861077570861" y="29.575" font-family="Courier New" font-weight="bold" font-style="normal" text-decoration="none" family="Courier New" text-anchor="middle" size="13">Validate</text></g></g><g id="ProcessOnG1102" transform="matrix(1.0,0.0,0.0,1.0,281.47435897435895,922.0029759079943)" opacity="1.0"><path id="ProcessOnPath1103" d="M0.0 0.0L293.0503870024336 0.0L293.0503870024336 57.78913651707876L0.0 57.78913651707876Z" stroke="#323232" stroke-width="1.0" stroke-dasharray="none" fill="#ffffff"/><g id="ProcessOnG1104" transform="matrix(1.0,0.0,0.0,1.0,10.0,18.89456825853938)"><text id="ProcessOnText1105" fill="#323232" font-size="16" x="0.0" y="16.4" font-family="Courier New" font-weight="bold" font-style="normal" text-decoration="none" family="Courier New" text-anchor="start" size="16">Runner()</text></g></g><g id="ProcessOnG1106" transform="matrix(1.0,0.0,0.0,1.0,375.09958103400527,931.3975441665336)" opacity="1.0"><path id="ProcessOnPath1107" d="M0.0 0.0L77.33840442160249 0.0L77.33840442160249 39.0L0.0 39.0Z" stroke="#323232" stroke-width="1.0" stroke-dasharray="none" fill="#ffffff"/><g id="ProcessOnG1108" transform="matrix(1.0,0.0,0.0,1.0,10.0,11.375)"><text id="ProcessOnText1109" fill="#323232" font-size="13" x="27.669202210801245" y="13.325" font-family="Arial" font-weight="normal" font-style="normal" text-decoration="none" family="Arial" text-anchor="middle" size="13">Context()</text></g></g><g id="ProcessOnG1110" transform="matrix(1.0,0.0,0.0,1.0,460.38996241987206,931.3975441665341)" opacity="1.0"><path id="ProcessOnPath1111" d="M0.0 0.0L98.79213668284427 0.0L98.79213668284427 38.99999999999909L0.0 38.99999999999909Z" stroke="#323232" stroke-width="1.0" stroke-dasharray="none" fill="#ffffff"/><g id="ProcessOnG1112" transform="matrix(1.0,0.0,0.0,1.0,10.0,3.2499999999995453)"><text id="ProcessOnText1113" fill="#323232" font-size="13" x="38.396068341422136" y="13.325" font-family="Arial" font-weight="normal" font-style="normal" text-decoration="none" family="Arial" text-anchor="middle" size="13">HttpSession(</text><text id="ProcessOnText1114" fill="#323232" font-size="13" x="38.396068341422136" y="29.575" font-family="Arial" font-weight="normal" font-style="normal" text-decoration="none" family="Arial" text-anchor="middle" size="13">)</text></g></g><g id="ProcessOnG1115" transform="matrix(1.0,0.0,0.0,1.0,392.39066886423143,1024.6794871794887)" opacity="1.0"><path id="ProcessOnPath1116" d="M0.0 0.0L154.08327717118993 0.0L154.08327717118993 46.85897435897277L0.0 46.85897435897277Z" stroke="#323232" stroke-width="1.0" stroke-dasharray="none" fill="#66ff66"/><g id="ProcessOnG1117" transform="matrix(1.0,0.0,0.0,1.0,10.0,14.679487179486387)"><text id="ProcessOnText1118" fill="#323232" font-size="14" x="66.04163858559497" y="14.350000000000001" font-family="Times New Roman" font-weight="bold" font-style="normal" text-decoration="none" family="Times New Roman" text-anchor="middle" size="14">TestCase</text></g></g><g id="ProcessOnG1119" transform="matrix(1.0,0.0,0.0,1.0,311.22702731512265,1151.4057493497219)" opacity="1.0"><path id="ProcessOnPath1120" d="M0.0 0.0L251.563161963354 0.0L251.563161963354 43.72245577848298L0.0 43.72245577848298Z" stroke="#323232" stroke-width="1.0" stroke-dasharray="none" fill="#66ff66"/><g id="ProcessOnG1121" transform="matrix(1.0,0.0,0.0,1.0,10.0,11.86122788924149)"><text id="ProcessOnText1122" fill="#323232" font-size="16" x="114.781580981677" y="16.4" font-family="Times New Roman" font-weight="bold" font-style="normal" text-decoration="none" family="Times New Roman" text-anchor="middle" size="16">TextTestRunner</text></g></g><g id="ProcessOnG1123" transform="matrix(1.0,0.0,0.0,1.0,219.69310608039706,1256.1855615042055)" opacity="1.0"><path id="ProcessOnPath1124" d="M0.0 0.0L360.5987143440685 0.0L360.5987143440685 39.836786031304655L0.0 39.836786031304655Z" stroke="#323232" stroke-width="1.0" stroke-dasharray="none" fill="#66ffff"/><g id="ProcessOnG1125" transform="matrix(1.0,0.0,0.0,1.0,10.0,11.793393015652327)"><text id="ProcessOnText1126" fill="#323232" font-size="13" x="169.29935717203426" y="13.325" font-family="Courier New" font-weight="bold" font-style="normal" text-decoration="none" family="Courier New" text-anchor="middle" size="13">testcase setup hooks</text></g></g><g id="ProcessOnG1127" transform="matrix(1.0,0.0,0.0,1.0,219.54611933760802,1659.1533977615118)" opacity="1.0"><path id="ProcessOnPath1128" d="M0.0 0.0L360.5987143440685 0.0L360.5987143440685 39.836786031304655L0.0 39.836786031304655Z" stroke="#323232" stroke-width="1.0" stroke-dasharray="none" fill="#33ffff"/><g id="ProcessOnG1129" transform="matrix(1.0,0.0,0.0,1.0,10.0,11.793393015652327)"><text id="ProcessOnText1130" fill="#323232" font-size="13" x="169.29935717203426" y="13.325" font-family="Courier New" font-weight="bold" font-style="normal" text-decoration="none" family="Courier New" text-anchor="middle" size="13">testcase teardown hooks</text></g></g><g id="ProcessOnG1131" transform="matrix(1.0,0.0,0.0,1.0,319.4787148220439,1318.051307892495)" opacity="1.0"><path id="ProcessOnPath1132" d="M0.0 0.0L240.82922550815533 0.0L240.82922550815533 37.89473684210532L0.0 37.89473684210532Z" stroke="#323232" stroke-width="1.0" stroke-dasharray="none" fill="#cfcfcf"/><g id="ProcessOnG1133" transform="matrix(1.0,0.0,0.0,1.0,10.0,10.822368421052659)"><text id="ProcessOnText1134" fill="#323232" font-size="13" x="109.41461275407767" y="13.325" font-family="Arial" font-weight="normal" font-style="normal" text-decoration="none" family="Arial" text-anchor="middle" size="13">check if skip</text></g></g><g id="ProcessOnG1135" transform="matrix(1.0,0.0,0.0,1.0,319.478714822044,1355.9460447346005)" opacity="1.0"><path id="ProcessOnPath1136" d="M0.0 0.0L240.82922550815522 0.0L240.82922550815522 39.18546365914767L0.0 39.18546365914767Z" stroke="#323232" stroke-width="1.0" stroke-dasharray="none" fill="#ffcce6"/><g id="ProcessOnG1137" transform="matrix(1.0,0.0,0.0,1.0,10.0,11.467731829573836)"><text id="ProcessOnText1138" fill="#323232" font-size="13" x="109.41461275407761" y="13.325" font-family="Arial" font-weight="normal" font-style="normal" text-decoration="none" family="Arial" text-anchor="middle" size="13">prepare API</text></g></g><g id="ProcessOnG1139" transform="matrix(1.0,0.0,0.0,1.0,319.2567312917897,1395.1315083937482)" opacity="1.0"><path id="ProcessOnPath1140" d="M0.0 0.0L241.27319256866372 0.0L241.27319256866372 40.476190476190595L0.0 40.476190476190595Z" stroke="#323232" stroke-width="1.0" stroke-dasharray="none" fill="#66ffff"/><g id="ProcessOnG1141" transform="matrix(1.0,0.0,0.0,1.0,10.0,12.113095238095298)"><text id="ProcessOnText1142" fill="#323232" font-size="13" x="109.63659628433186" y="13.325" font-family="Arial" font-weight="normal" font-style="normal" text-decoration="none" family="Arial" text-anchor="middle" size="13">api setup hooks</text></g></g><g id="ProcessOnG1143" transform="matrix(1.0,0.0,0.0,1.0,319.0941470653803,1435.6076988699385)" opacity="1.0"><path id="ProcessOnPath1144" d="M0.0 0.0L241.59836102148256 0.0L241.59836102148256 39.63659147869646L0.0 39.63659147869646Z" stroke="#323232" stroke-width="1.0" stroke-dasharray="none" fill="#ffff00"/><g id="ProcessOnG1145" transform="matrix(1.0,0.0,0.0,1.0,10.0,11.69329573934823)"><text id="ProcessOnText1146" fill="#323232" font-size="13" x="109.79918051074128" y="13.325" font-family="Arial" font-weight="normal" font-style="normal" text-decoration="none" family="Arial" text-anchor="middle" size="13">send request</text></g></g><g id="ProcessOnG1147" transform="matrix(1.0,0.0,0.0,1.0,319.25673129178995,1513.8969352183863)" opacity="1.0"><path id="ProcessOnPath1148" d="M0.0 0.0L241.2731925686635 0.0L241.2731925686635 39.6806884635829L0.0 39.6806884635829Z" stroke="#323232" stroke-width="1.0" stroke-dasharray="none" fill="#66ffff"/><g id="ProcessOnG1149" transform="matrix(1.0,0.0,0.0,1.0,10.0,11.715344231791448)"><text id="ProcessOnText1150" fill="#323232" font-size="13" x="109.63659628433174" y="13.325" font-family="Arial" font-weight="normal" font-style="normal" text-decoration="none" family="Arial" text-anchor="middle" size="13">api teardown hooks</text></g></g><g id="ProcessOnG1151" transform="matrix(1.0,0.0,0.0,1.0,319.25673129178995,1553.8969352183865)" opacity="1.0"><path id="ProcessOnPath1152" d="M0.0 0.0L241.2731925686635 0.0L241.2731925686635 39.6806884635829L0.0 39.6806884635829Z" stroke="#323232" stroke-width="1.0" stroke-dasharray="none" fill="#ffb366"/><g id="ProcessOnG1153" transform="matrix(1.0,0.0,0.0,1.0,10.0,11.715344231791448)"><text id="ProcessOnText1154" fill="#323232" font-size="13" x="109.63659628433174" y="13.325" font-family="Arial" font-weight="normal" font-style="normal" text-decoration="none" family="Arial" text-anchor="middle" size="13">extract response</text></g></g><g id="ProcessOnG1155" transform="matrix(1.0,0.0,0.0,1.0,319.7452136869514,1593.5776236819654)" opacity="1.0"><path id="ProcessOnPath1156" d="M0.0 0.0L240.2962277783406 0.0L240.2962277783406 40.416666666666515L0.0 40.416666666666515Z" stroke="#323232" stroke-width="1.0" stroke-dasharray="none" fill="#ff66ff"/><g id="ProcessOnG1157" transform="matrix(1.0,0.0,0.0,1.0,10.0,12.083333333333258)"><text id="ProcessOnText1158" fill="#323232" font-size="13" x="109.1481138891703" y="13.325" font-family="Arial" font-weight="normal" font-style="normal" text-decoration="none" family="Arial" text-anchor="middle" size="13">validate</text></g></g><g id="ProcessOnG1159" transform="matrix(1.0,0.0,0.0,1.0,100.247378003811,1736.0295333157999)" opacity="1.0"><path id="ProcessOnPath1160" d="M0.0 0.0L499.66379628580717 0.0L499.66379628580717 77.823641287373L0.0 77.823641287373Z" stroke="#ff0000" stroke-width="1.0" stroke-dasharray="5.0 2.0" fill="none"/><g id="ProcessOnG1161" transform="matrix(1.0,0.0,0.0,1.0,10.0,30.786820643686497)"><text id="ProcessOnText1162" fill="#3333ff" font-size="13" x="0.0" y="13.325" font-family="Arial" font-weight="bold" font-style="normal" text-decoration="none" family="Arial" text-anchor="start" size="13">aggregate</text></g></g><g id="ProcessOnG1163" transform="matrix(1.0,0.0,0.0,1.0,220.0563803001844,1757.0740326821438)" opacity="1.0"><path id="ProcessOnPath1164" d="M0.0 0.0L360.5987143440685 0.0L360.5987143440685 39.836786031304655L0.0 39.836786031304655Z" stroke="#323232" stroke-width="1.0" stroke-dasharray="none" fill="#ffff66"/><g id="ProcessOnG1165" transform="matrix(1.0,0.0,0.0,1.0,10.0,11.793393015652327)"><text id="ProcessOnText1166" fill="#323232" font-size="13" x="169.29935717203426" y="13.325" font-family="Courier New" font-weight="bold" font-style="normal" text-decoration="none" family="Courier New" text-anchor="middle" size="13">aggregate results</text></g></g><g id="ProcessOnG1167" transform="matrix(1.0,0.0,0.0,1.0,219.60612368395016,1897.1408868981093)" opacity="1.0"><path id="ProcessOnPath1168" d="M0.0 0.0L360.5987143440685 0.0L360.5987143440685 39.836786031304655L0.0 39.836786031304655Z" stroke="#323232" stroke-width="1.0" stroke-dasharray="none" fill="#ffff66"/><g id="ProcessOnG1169" transform="matrix(1.0,0.0,0.0,1.0,10.0,11.793393015652327)"><text id="ProcessOnText1170" fill="#323232" font-size="13" x="169.29935717203426" y="13.325" font-family="Courier New" font-weight="bold" font-style="normal" text-decoration="none" family="Courier New" text-anchor="middle" size="13">generate html report</text></g></g><g id="ProcessOnG1171" transform="matrix(1.0,0.0,0.0,1.0,220.0563803001844,1856.3531746031765)" opacity="1.0"><path id="ProcessOnPath1172" d="M0.0 0.0L180.45231324637427 0.0L180.45231324637427 40.592448934823096L0.0 40.592448934823096Z" stroke="#323232" stroke-width="1.0" stroke-dasharray="none" fill="#99ccff"/><g id="ProcessOnG1173" transform="matrix(1.0,0.0,0.0,1.0,10.0,12.171224467411548)"><text id="ProcessOnText1174" fill="#323232" font-size="13" x="79.22615662318714" y="13.325" font-family="Arial" font-weight="normal" font-style="normal" text-decoration="none" family="Arial" text-anchor="middle" size="13">default template</text></g></g><g id="ProcessOnG1175" transform="matrix(1.0,0.0,0.0,1.0,400.5086935465587,1855.944229269116)" opacity="1.0"><path id="ProcessOnPath1176" d="M0.0 0.0L179.69614448146007 0.0L179.69614448146007 41.41033960294408L0.0 41.41033960294408Z" stroke="#323232" stroke-width="1.0" stroke-dasharray="none" fill="#9999ff"/><g id="ProcessOnG1177" transform="matrix(1.0,0.0,0.0,1.0,10.0,12.580169801472039)"><text id="ProcessOnText1178" fill="#323232" font-size="13" x="78.84807224073003" y="13.325" font-family="Arial" font-weight="normal" font-style="normal" text-decoration="none" family="Arial" text-anchor="middle" size="13">custom template</text></g></g><g id="ProcessOnG1179" transform="matrix(1.0,0.0,0.0,1.0,318.79903461796334,1475.3640321747916)" opacity="1.0"><path id="ProcessOnPath1180" d="M0.0 0.0L242.18858591631658 0.0L242.18858591631658 38.58438052362533L0.0 38.58438052362533Z" stroke="#323232" stroke-width="1.0" stroke-dasharray="none" fill="#99ccff"/><g id="ProcessOnG1181" transform="matrix(1.0,0.0,0.0,1.0,10.0,11.167190261812664)"><text id="ProcessOnText1182" fill="#323232" font-size="13" x="110.09429295815829" y="13.325" font-family="Arial" font-weight="normal" font-style="normal" text-decoration="none" family="Arial" text-anchor="middle" size="13">make ResponseObject</text></g></g><g id="ProcessOnG1183" transform="matrix(1.0,0.0,0.0,1.0,340.43640983760076,140.71815658172247)" opacity="1.0"><path id="ProcessOnPath1184" d="M0.0 0.0L119.9535525822713 0.0L119.9535525822713 39.673719164991724L0.0 39.673719164991724Z" stroke="#323232" stroke-width="1.0" stroke-dasharray="none" fill="#cfcfcf"/><g id="ProcessOnG1185" transform="matrix(1.0,0.0,0.0,1.0,10.0,11.711859582495862)"><text id="ProcessOnText1186" fill="#323232" font-size="13" x="48.97677629113565" y="13.325" font-family="Arial" font-weight="normal" font-style="normal" text-decoration="none" family="Arial" text-anchor="middle" size="13">YAML</text></g></g><g id="ProcessOnG1187" transform="matrix(1.0,0.0,0.0,1.0,475.04647306130136,140.83624959819716)" opacity="1.0"><path id="ProcessOnPath1188" d="M0.0 0.0L110.17512558531087 0.0L110.17512558531087 39.43753313204235L0.0 39.43753313204235Z" stroke="#323232" stroke-width="1.0" stroke-dasharray="none" fill="#cfcfcf"/><g id="ProcessOnG1189" transform="matrix(1.0,0.0,0.0,1.0,10.0,11.593766566021174)"><text id="ProcessOnText1190" fill="#323232" font-size="13" x="44.08756279265543" y="13.325" font-family="Arial" font-weight="normal" font-style="normal" text-decoration="none" family="Arial" text-anchor="middle" size="13">.env</text></g></g><g id="ProcessOnG1191" transform="matrix(1.0,0.0,0.0,1.0,474.6728336126758,80.44114827147351)" opacity="1.0"><path id="ProcessOnPath1192" d="M0.0 0.0L110.92240448256211 0.0L110.92240448256211 39.67789934757417L0.0 39.67789934757417Z" stroke="#323232" stroke-width="1.0" stroke-dasharray="none" fill="#b8b8b8"/><g id="ProcessOnG1193" transform="matrix(1.0,0.0,0.0,1.0,10.0,11.713949673787084)"><text id="ProcessOnText1194" fill="#323232" font-size="13" x="44.46120224128106" y="13.325" font-family="Arial" font-weight="normal" font-style="normal" text-decoration="none" family="Arial" text-anchor="middle" size="13">debugtalk.py</text></g></g><g id="ProcessOnG1195" transform="matrix(1.0,0.0,0.0,1.0,218.34701385854794,300.3307343293342)" opacity="1.0"><path id="ProcessOnPath1196" d="M0.0 0.0L177.37088252481885 0.0L177.37088252481885 37.344704267157226L0.0 37.344704267157226Z" stroke="#323232" stroke-width="1.0" stroke-dasharray="none" fill="#ffffff"/><g id="ProcessOnG1197" transform="matrix(1.0,0.0,0.0,1.0,10.0,10.547352133578613)"><text id="ProcessOnText1198" fill="#323232" font-size="13" x="77.68544126240943" y="13.325" font-family="Courier New" font-weight="bold" font-style="normal" text-decoration="none" family="Courier New" text-anchor="middle" size="13">import debugtalk.py</text></g></g><g id="ProcessOnG1199" transform="matrix(1.0,0.0,0.0,1.0,219.06889813758272,429.13948933559567)" opacity="1.0"><path id="ProcessOnPath1200" d="M0.0 0.0L359.5198921670377 0.0L359.5198921670377 39.19384399773787L0.0 39.19384399773787Z" stroke="#323232" stroke-width="1.0" stroke-dasharray="none" fill="#ffcc99"/><g id="ProcessOnG1201" transform="matrix(1.0,0.0,0.0,1.0,10.0,11.471921998868936)"><text id="ProcessOnText1202" fill="#323232" font-size="13" x="168.75994608351886" y="13.325" font-family="Courier New" font-weight="bold" font-style="normal" text-decoration="none" family="Courier New" text-anchor="middle" size="13">Raw valid data</text></g></g><g id="ProcessOnG1203" transform="matrix(1.0,0.0,0.0,1.0,414.99124025282345,367.8262820478665)" opacity="1.0"><path id="ProcessOnPath1204" d="M0.0 0.0L153.94780990051652 0.0L153.94780990051652 38.91738644297561L0.0 38.91738644297561Z" stroke="#323232" stroke-width="1.0" stroke-dasharray="none" fill="#ffffff"/><g id="ProcessOnG1205" transform="matrix(1.0,0.0,0.0,1.0,10.0,11.333693221487806)"><text id="ProcessOnText1206" fill="#323232" font-size="13" x="65.97390495025826" y="13.325" font-family="Courier New" font-weight="bold" font-style="normal" text-decoration="none" family="Courier New" text-anchor="middle" size="13">.env validate</text></g></g><g id="ProcessOnG1207" transform="matrix(1.0,0.0,0.0,1.0,415.20003266787825,300.4563744759681)" opacity="1.0"><path id="ProcessOnPath1208" d="M0.0 0.0L163.38875763674213 0.0L163.38875763674213 37.093423973889344L0.0 37.093423973889344Z" stroke="#323232" stroke-width="1.0" stroke-dasharray="none" fill="#ffffff"/><g id="ProcessOnG1209" transform="matrix(1.0,0.0,0.0,1.0,10.0,10.421711986944672)"><text id="ProcessOnText1210" fill="#323232" font-size="13" x="70.69437881837106" y="13.325" font-family="Courier New" font-weight="bold" font-style="normal" text-decoration="none" family="Courier New" text-anchor="middle" size="13">load .env</text></g></g><g id="ProcessOnG1211" transform="matrix(1.0,0.0,0.0,1.0,217.70330002150314,680.6922677043424)" opacity="1.0"><path id="ProcessOnPath1212" d="M0.0 0.0L360.5987143440685 0.0L360.5987143440685 39.836786031304655L0.0 39.836786031304655Z" stroke="#323232" stroke-width="1.0" stroke-dasharray="none" fill="#ffffff"/><g id="ProcessOnG1213" transform="matrix(1.0,0.0,0.0,1.0,10.0,11.793393015652327)"><text id="ProcessOnText1214" fill="#323232" font-size="13" x="169.29935717203426" y="13.325" font-family="Courier New" font-weight="bold" font-style="normal" text-decoration="none" family="Courier New" text-anchor="middle" size="13">parse config variables</text></g></g><g id="ProcessOnG1215" transform="matrix(1.0,0.0,0.0,1.0,217.23455002150314,732.5672677043424)" opacity="1.0"><path id="ProcessOnPath1216" d="M0.0 0.0L360.5987143440685 0.0L360.5987143440685 39.836786031304655L0.0 39.836786031304655Z" stroke="#323232" stroke-width="1.0" stroke-dasharray="none" fill="#ffffff"/><g id="ProcessOnG1217" transform="matrix(1.0,0.0,0.0,1.0,10.0,11.793393015652327)"><text id="ProcessOnText1218" fill="#323232" font-size="13" x="169.29935717203426" y="13.325" font-family="Courier New" font-weight="bold" font-style="normal" text-decoration="none" family="Courier New" text-anchor="middle" size="13">parse config parameters</text></g></g><g id="ProcessOnG1219" transform="matrix(1.0,0.0,0.0,1.0,218.38711089631937,519.0116225165578)" opacity="1.0"><path id="ProcessOnPath1220" d="M0.0 0.0L143.64506571884846 0.0L143.64506571884846 92.18068517574778L0.0 92.18068517574778Z" stroke="#323232" stroke-width="1.0" stroke-dasharray="none" fill="#ffffff"/><g id="ProcessOnG1221" transform="matrix(1.0,0.0,0.0,1.0,10.0,37.96534258787389)"><text id="ProcessOnText1222" fill="#323232" font-size="13" x="60.82253285942423" y="13.325" font-family="Courier New" font-weight="bold" font-style="normal" text-decoration="none" family="Courier New" text-anchor="middle" size="13">extend &amp; merge </text></g></g><g id="ProcessOnG1223" transform="matrix(1.0,0.0,0.0,1.0,218.3909626054795,624.5112842073872)" opacity="1.0"><path id="ProcessOnPath1224" d="M0.0 0.0L360.07936348760376 0.0L360.07936348760376 39.097690151583606L0.0 39.097690151583606Z" stroke="#323232" stroke-width="1.0" stroke-dasharray="none" fill="#ccccff"/><g id="ProcessOnG1225" transform="matrix(1.0,0.0,0.0,1.0,10.0,11.423845075791803)"><text id="ProcessOnText1226" fill="#323232" font-size="13" x="169.03968174380188" y="13.325" font-family="Courier New" font-weight="bold" font-style="normal" text-decoration="none" family="Courier New" text-anchor="middle" size="13">valid testcases</text></g></g><g id="ProcessOnG1227" transform="matrix(1.0,0.0,0.0,1.0,361.92470503795977,519.0116225165578)" opacity="1.0"><path id="ProcessOnPath1228" d="M0.0 0.0L215.01520482373337 0.0L215.01520482373337 46.24871870210825L0.0 46.24871870210825Z" stroke="#323232" stroke-width="1.0" stroke-dasharray="none" fill="#ffffff"/><g id="ProcessOnG1229" transform="matrix(1.0,0.0,0.0,1.0,10.0,6.8743593510541245)"><text id="ProcessOnText1230" fill="#323232" font-size="13" x="96.50760241186669" y="13.325" font-family="Courier New" font-weight="bold" font-style="normal" text-decoration="none" family="Courier New" text-anchor="middle" size="13">api: validate, extract, </text><text id="ProcessOnText1231" fill="#323232" font-size="13" x="96.50760241186669" y="29.575" font-family="Courier New" font-weight="bold" font-style="normal" text-decoration="none" family="Courier New" text-anchor="middle" size="13">variables</text></g></g><g id="ProcessOnG1232" transform="matrix(1.0,0.0,0.0,1.0,362.03217661516777,565.2603412186661)" opacity="1.0"><path id="ProcessOnPath1233" d="M0.0 0.0L214.80026166931736 0.0L214.80026166931736 45.93196647363948L0.0 45.93196647363948Z" stroke="#323232" stroke-width="1.0" stroke-dasharray="none" fill="#ffffff"/><g id="ProcessOnG1234" transform="matrix(1.0,0.0,0.0,1.0,10.0,14.840983236819739)"><text id="ProcessOnText1235" fill="#323232" font-size="13" x="0.0" y="13.325" font-family="Courier New" font-weight="bold" font-style="normal" text-decoration="none" family="Courier New" text-anchor="start" size="13">testcase: variables</text></g></g><g id="ProcessOnG1236"><path id="ProcessOnPath1237" d="M469.4323074498264 1024.6794871794887L469.4323074498264 1002.2357998022796L427.99955247557574 1002.2357998022796L427.99955247557574 995.0281804025728" stroke="#323232" stroke-width="2.0" stroke-dasharray="none" fill="none" marker-end="url(#ProcessOnMarker1238)"/></g><g id="ProcessOnG1240" transform="matrix(1.0,0.0,0.0,1.0,392.39066886423143,1083.939842209074)" opacity="1.0"><path id="ProcessOnPath1241" d="M0.0 0.0L154.08327717118993 0.0L154.08327717118993 46.85897435897277L0.0 46.85897435897277Z" stroke="#323232" stroke-width="1.0" stroke-dasharray="none" fill="#66ff66"/><g id="ProcessOnG1242" transform="matrix(1.0,0.0,0.0,1.0,10.0,14.679487179486387)"><text id="ProcessOnText1243" fill="#323232" font-size="14" x="66.04163858559497" y="14.350000000000001" font-family="Times New Roman" font-weight="bold" font-style="normal" text-decoration="none" family="Times New Roman" text-anchor="middle" size="14">TestCase</text></g></g></g></g></svg>